<svg xmlns="http://www.w3.org/2000/svg" viewBox="681.2 340.7 137 212.6" width="137" height="213">
  <g fill="none" stroke="#30312e" stroke-width="2" stroke-linecap="round" stroke-linejoin="round">
    <path d="M692.4 532.2 L691.3 530.2  L690.3 526.5  L690.3 523.9  L689.8 520.8  L689.8 517.1  L689.2 513.5  L689.8 509.3  L690.3 505.1  L690.8 501  L691.3 497.3  L692.4 493.7  L693.4 490.5  L694.4 487.4  L696 484.3  L697.1 481.7  L698.1 479.1  L699.1 477  L700.2 474.9  L701.2 472.8  L702.3 470.2  L702.3 468.1  L701.2 470.2  L700.2 472.3  L699.7 475.4  L699.1 479.1  L699.1 484.3  L698.6 490  L698.1 496.3  L697.6 503.1  L697.1 509.3  L696 516.1  L695 521.8  L693.9 527.6  L692.9 532.8  L691.8 536.9  L690.8 540.1  L690.3 542.7  L689.2 545.3  L689.8 543.2  L689.8 541.1  L690.8 538  L691.3 534.9  L692.4 530.7  L693.4 527  L693.9 522.9  L695 518.7  L696 514.5  L696.5 510.9  L697.6 507.2  L698.1 504.1  L698.6 500.4  L698.6 497.8  L699.1 494.7  L699.1 492.6  L699.7 490  L700.2 486.9  L700.2 484.3  L700.2 482.2"/>
    <path d="M711.6 482.7 L712.7 485.3  L713.7 487.4  L714.8 490.5  L715.8 494.2  L716.9 498.4  L717.9 502"/>
    <path d="M721.6 531.2 L721.6 533.3  L721.6 535.4  L721.6 537.5  L721.6 540.1  L722.1 537.5  L722.1 535.4  L722.6 532.8  L722.6 529.6  L722.6 525.5  L722.6 521.3  L722.6 517.1  L722.1 513  L722.1 508.3  L722.1 504.6  L721.6 501  L721.6 497.3  L721.6 494.7  L721.6 492.6  L721.6 490.5  L721.6 493.7  L721.6 496.8  L721.6 500.4  L721.6 504.1  L721 508.3  L721 512.4  L721 516.6  L721 520.3  L720.5 522.9  L720.5 524.9"/>
    <path d="M739.3 490.5 L738.8 487.9  L738.8 485.8  L738.8 483.8  L737.7 481.2  L736.7 479.1  L736.1 477  L738.2 480.6  L739.8 482.7  L741.4 485.8  L742.9 489.5  L744.5 494.2  L746.6 498.9  L748.1 503.6  L749.7 508.3  L751.3 513  L752.8 517.1  L753.9 521.3  L755.4 524.4  L757 527  L758 529.6  L759.6 532.8  L761.2 534.3  L761.7 531.2  L761.2 529.1  L760.6 526.5  L759.6 523.4  L758.6 519.2  L757 514.5  L756 510.3  L754.4 505.7  L752.8 501.5  L751.8 497.3  L750.7 493.7  L749.7 490.5  L749.2 486.9  L748.1 483.8  L747.1 480.6  L746.6 478  L745.5 475.9  L744.5 473.9  L742.9 471.3  L741.4 469.7  L740.8 471.8  L740.8 474.4  L740.8 477  L740.8 480.6  L741.4 484.3  L741.9 487.4  L742.4 490.5  L742.9 493.7  L743.4 496.3  L744 498.4  L744.5 501.5"/>
    <path d="M697.6 501 L699.7 502  L701.7 503.1  L704.9 504.6  L708 506.2  L710.6 507.7"/>
    <path d="M723.1 507.7 L725.2 508.8  L728.3 508.3  L730.4 507.2  L732.5 506.7"/>
    <path d="M703.3 483.8 L702.8 480.1  L702.8 478  L702.8 474.9  L702.8 470.7  L703.3 466  L703.8 460.3  L704.9 453.5  L705.4 446.8  L706.4 439.5  L707.5 432.2  L708.5 424.9  L709.6 417.6  L710.6 410.3  L712.2 403.5  L713.7 397.2  L715.3 391  L716.9 385.2  L718.4 380  L719.5 375.3  L720.5 370.6  L721.6 367  L722.6 363.3  L723.1 360.7  L724.2 357.6  L724.7 355.5  L725.2 353.4  L725.7 350.8  L726.2 348.7  L726.2 351.9  L725.2 355.5  L724.7 357.6  L723.6 360.2  L723.1 363.3  L722.6 366.5  L721.6 370.6  L721 375.3  L720.5 380.5  L720 387.3  L718.9 394.6  L718.4 403.5  L717.4 412.9  L716.3 420.7"/>
    <path d="M710.6 469.2 L709.6 472.3  L708.5 475.4  L707.5 479.1  L707 481.7"/>
    <path d="M738.8 465 L736.7 466  L737.2 468.1  L739.3 468.1  L739.3 466  L738.2 464  L737.7 461.3  L736.7 457.7  L735.6 455.1  L734.6 452  L733.5 447.8  L732.5 443.6  L730.9 438.4  L728.8 433.2  L727.3 427.5  L725.7 421.7  L724.7 415.5  L723.6 409.7  L723.1 404  L722.1 398.3  L721.6 393.1  L721.6 387.8  L721 383.2  L721 378.5  L720.5 374.3  L720.5 370.6  L720.5 367  L720 364.4  L720 361.8  L720 359.7  L719.5 357.6  L717.9 360.2  L717.9 362.8  L717.9 365.4  L717.9 368.6  L718.4 371.7  L718.9 374.8  L720 378.5  L721 382.6  L723.1 387.8  L725.2 394.1  L726.8 398.8"/>
    <path d="M738.8 467.6 L738.8 464.5  L738.2 462.4  L738.2 460.3  L737.7 456.7  L737.2 453  L736.7 447.8  L736.7 442.6  L736.1 436.8  L736.1 430.6  L736.1 424.3  L735.6 417.6  L735.6 411.3  L735.6 405  L735.1 398.8  L735.1 393.6  L734.6 387.8  L734.1 383.2  L733 378.5  L732.5 373.8  L731.5 369.6  L730.4 365.4  L729.4 362.3  L728.3 359.2  L727.3 356.6  L725.7 352.9  L724.7 350.3  L724.7 354  L725.2 356.6  L726.2 359.7  L727.3 363.3  L728.8 367.5  L730.4 371.7  L732 376.9  L734.1 381.6  L735.6 387.3  L737.2 393.1  L738.2 397.7"/>
    <path d="M721 440.5 L720 438.4  L718.9 434.8  L718.4 432.2  L718.4 429.5  L717.9 426.4  L717.9 422.8  L717.9 419.6  L717.9 416.5  L717.9 413.9  L718.4 411.3  L718.9 408.7  L719.5 406.6  L720.5 404.5  L721 402.4  L723.1 399.3  L725.2 397.2  L727.3 397.7  L729.4 401.4  L729.9 404  L730.4 407.1  L730.4 410.3  L730.4 413.9  L730.4 416.5  L729.9 419.6  L729.4 422.3  L728.8 424.3  L727.8 426.4  L725.7 429  L724.2 430.6  L722.1 430.6  L720.5 428.5  L720 425.9  L720 423.8  L720 421.2  L720 419.1  L720.5 416  L720.5 412.9  L720.5 409.7  L720.5 407.1  L721 401.4  L721.6 399.3  L722.1 397.2  L723.1 395.1"/>
    <path d="M796.6 532.2 L794.5 530.2  L793.5 528.1  L792.4 526  L791.4 523.9  L790.4 520.8  L788.8 517.6  L787.8 514  L786.2 509.8  L784.6 505.1  L783.1 499.9  L781.5 494.2  L779.9 488.5  L778.9 482.7  L777.3 477  L775.8 471.8  L774.7 467.1  L773.2 463.4  L772.1 460.8  L771.1 458.7  L769.5 456.1  L769 459.8  L769.5 462.4  L770.6 465.5  L772.1 469.7  L773.7 473.9  L775.2 478.6  L777.3 483.8  L779.4 489  L782 494.2  L784.1 499.4  L786.2 504.6  L787.8 509.3  L789.3 513.5  L790.4 517.1  L790.9 520.8  L791.9 523.9  L791.9 526.5  L792.4 529.6"/>
    <path d="M788.3 463.4 L786.7 460.3  L786.2 458.2  L785.1 455.6  L784.1 453.5  L783.6 451.4  L783.6 449.4  L783.1 446.8  L785.7 448.3  L787.2 450.9  L788.8 455.1  L790.4 459.8  L792.4 465  L794 470.2  L796.1 475.9  L798.2 481.7  L800.3 486.9  L802.4 491.6  L803.9 495.8  L805.5 499.9  L806.5 503.6  L807.6 506.7  L808.6 509.3  L809.1 511.4  L810.2 513.5  L809.7 511.4  L808.1 507.2  L806.5 504.6  L805 501.5  L803.4 497.8  L801.3 494.2  L799.7 490.5  L798.2 486.4  L796.6 482.2  L795.1 478.6  L793.5 474.4  L791.9 470.7  L790.9 467.1  L789.8 463.4  L788.3 460.8  L787.2 458.2  L785.7 455.1  L785.1 458.2  L785.7 461.3  L787.2 465.5  L788.8 471.3  L790.4 477  L792.4 483.2  L794 489.5  L795.6 494.7  L797.1 499.9  L798.2 503.6  L799.2 507.2  L800.3 509.8  L800.8 512.4  L801.8 514.5  L802.9 518.2  L804.4 520.8  L806 522.9"/>
    <path d="M776.3 469.2 L774.7 467.1  L775.2 465  L776.8 463.4  L778.9 462.4  L781 461.3  L783.1 460.8  L785.1 460.8  L785.1 462.9  L783.6 465  L781.5 466.6  L779.9 468.6  L778.9 470.7  L781.5 471.3  L784.6 470.7  L786.7 470.2  L788.8 469.7  L788.8 471.8  L787.2 473.3  L784.6 474.9  L782.5 477  L780.5 478.6  L782.5 478.6  L785.7 477.5  L787.8 477  L790.9 475.9  L793 475.9  L792.4 478.6  L790.4 481.2  L787.8 483.8  L785.1 485.8  L783.1 487.4  L785.1 486.9  L787.8 485.8  L790.4 485.3  L792.4 485.3  L791.4 487.4  L789.3 490  L787.8 492.1  L790.4 492.1  L792.4 492.1  L792.4 494.2  L791.4 496.3  L789.8 498.4  L791.9 497.3  L794.5 496.8  L797.7 496.3  L800.8 496.3  L802.9 496.8  L803.4 499.4  L802.4 502  L800.3 504.6  L798.2 507.7  L796.1 510.9  L795.1 513.5  L794.5 516.1  L797.1 514"/>
    <path d="M779.4 472.3 L778.4 469.2  L777.3 467.1  L776.8 465  L776.3 462.9  L775.2 459.8  L774.7 457.7  L773.7 455.6  L771.6 454.6  L770.6 452.5  L768.5 452  L767.4 454  L766.9 456.1  L766.9 458.2  L764.8 456.7  L763.3 454.6  L760.6 452  L757 449.4  L754.9 448.3  L752.8 447.3  L750.2 445.7  L747.6 444.7  L745 443.1  L742.9 442.1  L740.3 440.5  L738.2 439.5  L735.1 437.4  L733 436.3  L735.6 435.3  L738.2 436.3  L741.4 438.4  L743.4 440  L745 441.5  L747.1 442.6  L749.2 444.1  L751.3 445.2  L754.9 447.3  L757 447.8  L760.1 448.8  L762.2 449.4  L759.6 449.4  L754.9 447.8  L752.8 447.3  L749.7 445.2  L747.6 444.1  L745.5 443.1  L741.9 442.1  L739.3 441.5"/>
    <path d="M746.6 428 L744.5 428  L746.6 427.5  L749.7 429  L751.8 430.1  L754.4 431.1  L757 432.2  L760.1 433.7  L762.7 434.8  L765.9 435.8  L769 436.8  L772.1 437.9  L774.7 438.9  L777.3 439.5  L779.9 440.5  L783.1 441  L785.1 441  L783.6 438.9  L780.5 437.4  L776.8 436.3  L773.2 435.3  L771.1 434.8  L769 434.2  L766.4 434.2  L764.3 434.2  L764.8 436.3  L766.4 437.9  L769.5 438.9  L771.6 439.5"/>
    <path d="M740.3 438.4 L738.8 436.8  L738.2 434.2  L736.7 431.6  L736.1 429.5  L735.6 426.9  L738.2 426.9  L740.3 428  L743.4 430.1  L747.1 432.2  L750.7 434.2  L754.4 436.3  L756.5 436.8  L760.1 439.5  L763.3 441  L765.3 443.1  L766.9 444.7  L768.5 446.2  L770.6 447.8  L772.6 448.3  L771.1 446.8"/>
    <path d="M745.5 437.4 L742.4 437.4  L739.3 436.8  L737.2 436.3  L736.7 434.2  L738.2 432.2  L740.8 430.6  L742.9 429.5  L745 430.6  L746.6 433.2  L747.6 435.8  L749.2 437.9  L750.2 440  L752.3 441  L753.9 439.5  L754.4 437.4  L755.4 440  L756 442.6  L756.5 444.7  L758.6 447.3  L760.6 447.8  L762.7 447.8  L764.8 448.8  L765.9 450.9  L766.4 453"/>
    <path d="M748.7 423.8 L748.1 421.7  L747.6 419.6  L747.1 417  L746.6 414.4  L748.7 414.4  L750.7 415.5  L753.4 416.5  L756.5 417.6  L758.6 418.6  L760.6 419.1  L762.7 419.6  L764.8 420.2  L766.9 421.2  L769.5 421.7  L771.6 422.3  L773.7 422.8  L775.8 423.3  L778.9 424.3  L781 424.9  L783.1 425.4  L785.1 426.4  L787.2 427.5  L788.8 430.1  L788.8 432.2  L789.3 434.8  L790.4 437.9  L790.9 441  L791.4 443.1  L790.4 441  L788.8 438.9  L787.8 436.8  L786.2 434.2  L784.6 431.6  L783.1 429.5  L781.5 431.1  L780.5 433.2  L778.4 432.2  L777.3 429.5  L776.8 427.5  L775.2 425.9  L773.2 427.5  L771.6 430.1  L769.5 432.7  L767.9 434.2  L766.4 432.7  L765.9 430.1  L765.3 427.5  L764.3 424.3  L763.8 422.3  L761.7 422.8  L760.1 425.4  L758.6 428  L757 430.1  L755.4 431.6  L754.4 429.5  L754.4 427.5  L754.4 424.3  L754.4 422.3  L752.3 422.3"/>
    <path d="M727.8 429 L729.9 430.1  L731.5 431.6  L733.5 433.2  L735.6 433.7  L738.2 433.7  L740.8 433.2  L742.9 433.2  L745 432.7  L747.1 432.7  L745.5 431.1  L742.9 430.6  L740.3 430.6  L737.7 430.6  L735.6 430.6  L733 430.1  L730.9 430.1  L728.8 429.5  L726.2 429  L724.2 427.5"/>
    <path d="M720 369.6 L720 371.7  L721.6 373.2  L723.6 374.3  L725.7 373.8  L728.3 373.2  L730.4 372.2  L732.5 371.2"/>
  </g>
</svg>
